<svg xmlns="http://www.w3.org/2000/svg" xmlns:xlink="http://www.w3.org/1999/xlink" version="1.1" x="0px" y="0px" viewBox="0 0 100 125" enable-background="new 0 0 100 100" xml:space="preserve"><path fill="#000000" d="M50,4.61C24.972,4.61,4.61,24.972,4.61,50S24.972,95.39,50,95.39S95.39,75.028,95.39,50S75.028,4.61,50,4.61  z M68.177,49.76c-2.358,0.916-4.856,1.38-7.455,1.383c-2.368,0-4.75-0.418-6.99-1.219C58.324,48.126,63.588,48.065,68.177,49.76z   M51.766,46.98c0.734-5.09,3.373-9.729,7.351-12.923c-0.378,2.543-1.229,4.976-2.542,7.253  C55.329,43.471,53.678,45.412,51.766,46.98z M59.368,66.05c-2.028-1.604-3.716-3.56-5.03-5.833  c-1.278-2.211-2.141-4.662-2.536-7.182C55.906,56.253,58.624,60.928,59.368,66.05z M48.231,53.148  c-0.736,5.09-3.373,9.726-7.348,12.917c0.378-2.542,1.229-4.974,2.541-7.25C44.665,56.665,46.308,54.73,48.231,53.148z   M45.663,39.909c1.246,2.155,2.099,4.538,2.508,6.982c-4.141-3.181-6.906-7.83-7.699-12.947  C42.555,35.569,44.329,37.604,45.663,39.909z M39.098,47.777v0.89c2.562,0,5.124,0.483,7.507,1.407  c-4.833,1.988-10.451,2.024-15.265,0.096c2.441-0.985,5.084-1.5,7.743-1.502L39.098,47.777L39.098,47.777z M75.216,45.198  c-1.043,1.033-2.197,1.955-3.438,2.744c-3.25-1.67-6.9-2.55-10.592-2.55c-1.278,0-2.553,0.104-3.812,0.311  c0.704-0.896,1.344-1.842,1.913-2.83c1.936-3.359,3.026-7.144,3.167-10.978c5.77-2.971,12.935-2.894,18.702,0.152  C80.879,37.014,78.781,41.666,75.216,45.198z M59.321,30.077c-4.278,2.688-7.587,6.779-9.382,11.529  c-0.44-1.129-0.964-2.22-1.567-3.263c-1.981-3.425-4.78-6.304-8.113-8.352c0.302-6.643,3.833-12.633,9.548-16.196  c4.396,2.716,7.534,6.958,8.86,12C59.033,27.189,59.253,28.627,59.321,30.077z M33.273,30.341c1.288,0.352,2.583,0.856,3.857,1.502  c0.209,5.083,2.137,10.014,5.405,13.943c-1.142-0.166-2.295-0.25-3.456-0.25c-3.932,0.004-7.802,0.977-11.229,2.819  c-5.582-3.647-8.943-9.751-9.088-16.506C23.207,29.558,28.411,29.014,33.273,30.341z M24.6,54.612  c0.983-0.975,2.073-1.853,3.246-2.617c4.461,2.396,9.739,3.261,14.781,2.437c-0.709,0.898-1.349,1.842-1.912,2.821  c-1.937,3.361-3.028,7.147-3.169,10.982c-5.835,3.004-13.092,2.882-18.896-0.263C18.879,62.927,20.979,58.2,24.6,54.612z   M40.68,70.048c4.277-2.688,7.586-6.779,9.381-11.528c0.44,1.13,0.964,2.221,1.567,3.262c1.941,3.354,4.672,6.191,7.919,8.231  c-0.364,6.63-3.947,12.581-9.688,16.091c-4.222-2.728-7.241-6.89-8.526-11.772C40.966,72.934,40.747,71.495,40.68,70.048z   M66.727,69.785c-1.352-0.37-2.704-0.905-4.027-1.594c-0.162-5.166-2.096-10.178-5.417-14.169c1.141,0.166,2.293,0.249,3.454,0.249  c3.867-0.004,7.68-0.945,11.062-2.729c5.714,3.577,9.285,9.908,9.438,16.734C76.79,70.569,71.586,71.113,66.727,69.785z   M71.599,26.543c-3.229,0-6.339,0.651-9.265,1.938c-0.128-1.177-0.342-2.344-0.642-3.482c-1.364-5.193-4.426-9.693-8.693-12.828  c2.442-0.99,5.026-1.493,7.716-1.495c3.611,0,7.163,0.942,10.271,2.725c5.532,3.174,9.285,8.873,10.052,15.122  C78.062,27.225,74.829,26.543,71.599,26.543z M37.236,28.418c-1.018-0.438-2.069-0.805-3.139-1.097  c-2.031-0.554-4.112-0.835-6.188-0.835c-3.092,0-6.086,0.605-8.922,1.801c0.383-2.521,1.229-4.928,2.522-7.174  c1.808-3.138,4.403-5.749,7.506-7.551c3.105-1.804,6.646-2.757,10.239-2.757c2.514,0,5.026,0.476,7.352,1.385  C41.348,16.08,37.936,21.981,37.236,28.418z M15.746,33.763c0.659,6.545,4.016,12.517,9.235,16.408  c-0.911,0.676-1.777,1.418-2.584,2.218c-3.73,3.697-6.083,8.485-6.724,13.623c-2.029-1.604-3.718-3.562-5.033-5.834  c-1.814-3.135-2.777-6.688-2.787-10.276C7.836,43.505,10.76,37.581,15.746,33.763z M28.41,73.585c3.225,0,6.333-0.65,9.255-1.936  c0.127,1.177,0.342,2.341,0.641,3.478c1.327,5.042,4.271,9.452,8.36,12.573c-2.396,0.948-4.928,1.43-7.554,1.433  c-3.617,0-7.173-0.943-10.282-2.726c-5.536-3.177-9.202-8.66-10.025-14.873C21.827,72.879,25.117,73.585,28.41,73.585z   M52.999,87.769c5.311-3.839,8.789-9.716,9.552-16.156c1.09,0.482,2.214,0.883,3.354,1.193c5.057,1.379,10.368,1.031,15.108-0.967  c-0.384,2.521-1.229,4.928-2.523,7.174c-1.807,3.138-4.401,5.75-7.505,7.553c-3.1,1.801-6.636,2.753-10.226,2.753  C58.094,89.318,55.44,88.785,52.999,87.769z M84.254,66.363c-0.671-6.691-4.142-12.748-9.545-16.636  c0.965-0.703,1.873-1.476,2.712-2.307c3.686-3.654,6.03-8.387,6.699-13.466c2.122,1.634,3.881,3.645,5.241,5.994  c1.812,3.13,2.775,6.684,2.788,10.274C92.166,56.62,89.241,62.545,84.254,66.363z M84.312,30.264  c-0.062-2.166-0.43-4.305-1.089-6.362c2.567,3.257,4.634,6.862,6.141,10.708C87.894,32.933,86.19,31.466,84.312,30.264z   M49.795,10.205c-1.843-0.939-3.811-1.627-5.837-2.046c3.847-0.556,7.785-0.579,11.655-0.056  C53.594,8.547,51.634,9.253,49.795,10.205z M15.666,30.015c-1.778,1.111-3.389,2.457-4.797,3.998  c1.511-3.689,3.541-7.146,6.033-10.277C16.209,25.762,15.791,27.879,15.666,30.015z M15.516,69.75  c0.077,2.073,0.435,4.12,1.059,6.09c-2.423-3.125-4.39-6.563-5.849-10.223C12.131,67.201,13.744,68.597,15.516,69.75z   M49.805,89.718c1.848,0.987,3.828,1.716,5.878,2.17c-3.975,0.544-8.016,0.512-11.959-0.081  C45.835,91.389,47.886,90.687,49.805,89.718z M84.333,70.113c1.739-1.087,3.321-2.4,4.709-3.902  c-1.485,3.561-3.458,6.907-5.866,9.949C83.82,74.204,84.213,72.167,84.333,70.113z"/><text x="0" y="115" fill="#000000" font-size="5px" font-weight="bold" font-family="'Helvetica Neue', Helvetica, Arial-Unicode, Arial, Sans-serif">Created by Cass Reese</text><text x="0" y="120" fill="#000000" font-size="5px" font-weight="bold" font-family="'Helvetica Neue', Helvetica, Arial-Unicode, Arial, Sans-serif">from the Noun Project</text></svg>