<?xml version="1.0" encoding="UTF-8" standalone="no"?>
<svg id="svg2" xmlns:rdf="http://www.w3.org/1999/02/22-rdf-syntax-ns#" xmlns="http://www.w3.org/2000/svg" enable-background="new 0 0 100 100" xml:space="preserve" height="100" width="100" fill="#CDE1EA" version="1.1" y="0px" x="0px" xmlns:cc="http://creativecommons.org/ns#" xmlns:dc="http://purl.org/dc/elements/1.1/" viewBox="0 0 93.999 93.998"><metadata id="metadata22"><rdf:RDF><cc:Work rdf:about=""><dc:format>image/svg+xml</dc:format><dc:type rdf:resource="http://purl.org/dc/dcmitype/StillImage"/></cc:Work></rdf:RDF></metadata><g id="g4" transform="translate(-3.396,-3.855)"><path id="path6" fill="none" d="m15.695 75.566c3.97-13.655 11.303-14.125 12.883-14.494 0.183-0.043 0.368-0.082 0.555-0.118 4.79-4.426 1.521-22.903 1.521-22.903 0-28.165 19.051-25.395 19.051-25.395 0.233-0.012 0.463-0.022 0.691-0.03 0.228 0.008 0.458 0.018 0.69 0.03 0 0 19.051-2.771 19.051 25.395 0 0-3.269 18.478 1.521 22.903 0.186 0.036 0.372 0.075 0.555 0.118 1.579 0.369 8.912 0.839 12.883 14.494 0.046 0.158 0.079 0.32 0.114 0.48 5.142-7.085 8.185-15.787 8.185-25.191 0-23.71-19.289-43-42.999-43s-43 19.29-43 43c0 9.404 3.043 18.106 8.185 25.191 0.034-0.159 0.068-0.32 0.114-0.48z"/><path id="path8" fill="none" d="m35.437 36.864c-0.1 0.017-0.192 0.059-0.279 0.121-0.633 0.455-0.888 2.044-0.566 3.842 0.244 1.367 0.759 2.507 1.323 3.07 0.278 0.279 0.569 0.417 0.844 0.369 0.134-0.024 0.255-0.089 0.364-0.191 1.332 4.145 3.876 8.275 7.086 10.768 1.892 1.47 4.015 2.372 6.26 2.372 2.23 0 4.342-0.891 6.225-2.344 3.227-2.492 5.784-6.636 7.123-10.796 0.108 0.103 0.23 0.168 0.364 0.191 0.236 0.042 0.483-0.055 0.727-0.259 0.606-0.515 1.178-1.718 1.438-3.179 0.342-1.905 0.035-3.575-0.682-3.91-0.052-0.024-0.106-0.042-0.163-0.053l-1.628 1.569-20.055-10.323c-6.556-0.607-7.597 8.152-7.677 8.934-0.004 0.036-0.006 0.055-0.006 0.056v-0.001c-0.233-0.188-0.47-0.275-0.698-0.236z"/><path id="path10" fill="none" d="m63.336 60.029c0.002-0.016 0.003-0.029 0.005-0.045-0.704-0.26-3.304-1.396-3.344-3.986-0.012-0.006-0.022-0.011-0.033-0.016-1.636 1.612-3.454 2.889-5.392 3.658-1.318 0.521-2.691 0.811-4.103 0.811-1.411 0-2.784-0.289-4.101-0.811-1.958-0.777-3.791-2.07-5.439-3.703h-0.001c-0.001 2.011-1.535 3.156-2.579 3.703-0.123 0.064-0.24 0.121-0.348 0.17-0.259 0.118-0.458 0.188-0.544 0.218v0.001c0.061 0.515 0.29 1.014 0.658 1.482 1.725 2.206 6.57 5.39 12.282 5.39 5.71 0 10.557-3.184 12.279-5.39 0.369-0.468 0.598-0.967 0.66-1.482z"/><path id="path12" d="m50.396 3.855c-25.916 0-47 21.084-47 47 0 25.915 21.084 46.998 47 46.998 25.915 0 46.999-21.083 46.999-46.998 0-25.916-21.084-47-46.999-47zm0 4c23.71 0 42.999 19.29 42.999 43 0 9.404-3.043 18.106-8.185 25.191-0.035-0.16-0.068-0.322-0.114-0.48-3.971-13.655-11.304-14.125-12.883-14.494-0.183-0.043-0.369-0.082-0.555-0.118-4.79-4.426-1.521-22.903-1.521-22.903 0-28.165-19.051-25.395-19.051-25.395-0.232-0.012-0.463-0.022-0.69-0.03-0.228 0.008-0.458 0.018-0.691 0.03 0 0-19.051-2.771-19.051 25.395 0 0 3.27 18.478-1.521 22.903-0.188 0.036-0.373 0.075-0.555 0.118-1.58 0.369-8.913 0.839-12.883 14.494-0.046 0.159-0.08 0.32-0.115 0.48-5.142-7.085-8.185-15.787-8.185-25.191 0-23.71 19.29-43 43.001-43zm-14.255 29.19c0.08-0.782 1.121-9.541 7.677-8.934l20.054 10.323 1.628-1.569c0.057 0.01 0.111 0.028 0.163 0.053 0.717 0.335 1.023 2.005 0.682 3.91-0.26 1.461-0.831 2.664-1.438 3.179-0.243 0.205-0.49 0.301-0.727 0.259-0.134-0.023-0.256-0.088-0.364-0.191-1.339 4.16-3.896 8.304-7.123 10.796-1.883 1.453-3.994 2.344-6.225 2.344-2.245 0-4.368-0.902-6.26-2.372-3.21-2.493-5.755-6.623-7.086-10.768-0.109 0.102-0.23 0.167-0.364 0.191-0.275 0.048-0.566-0.089-0.844-0.369-0.563-0.563-1.079-1.703-1.323-3.07-0.321-1.798-0.066-3.387 0.566-3.842 0.087-0.062 0.179-0.104 0.279-0.121 0.228-0.039 0.465 0.048 0.698 0.236v0.001c0.001-0.001 0.003-0.02 0.007-0.056zm14.255 29.856c-5.712 0-10.558-3.184-12.282-5.39-0.368-0.469-0.597-0.968-0.658-1.482v-0.001c0.087-0.029 0.285-0.1 0.544-0.218 0.107-0.049 0.225-0.105 0.348-0.17 1.044-0.547 2.578-1.692 2.579-3.703h0.001c1.649 1.633 3.481 2.926 5.439 3.703 1.317 0.521 2.69 0.811 4.101 0.811 1.412 0 2.785-0.289 4.103-0.811 1.938-0.77 3.756-2.046 5.392-3.658 0.011 0.005 0.021 0.01 0.033 0.016 0.04 2.591 2.64 3.727 3.344 3.986-0.002 0.016-0.003 0.029-0.005 0.045-0.062 0.515-0.291 1.014-0.66 1.482-1.722 2.207-6.569 5.39-12.279 5.39z"/></g></svg>
