<?xml version="1.0" encoding="UTF-8" standalone="no"?>
<svg id="svg2" xmlns:rdf="http://www.w3.org/1999/02/22-rdf-syntax-ns#" xmlns="http://www.w3.org/2000/svg" enable-background="new 0 0 100 98.047" xml:space="preserve" height="100" width="100" fill="#58A5C7" version="1.1" y="0px" x="0px" xmlns:cc="http://creativecommons.org/ns#" xmlns:dc="http://purl.org/dc/elements/1.1/" viewBox="0 0 93.999997 93.997997"><metadata id="metadata22"><rdf:RDF><cc:Work rdf:about=""><dc:format>image/svg+xml</dc:format><dc:type rdf:resource="http://purl.org/dc/dcmitype/StillImage"/></cc:Work></rdf:RDF></metadata><path id="path4" d="m40.154 7.771c0.072 0.081 0.143 0.163 0.215 0.243 0.001 0-0.072-0.1-0.215-0.243z"/><path id="path6" d="m49.373 7.583c-0.045 0.052-0.067 0.083-0.067 0.083 0.022-0.027 0.045-0.055 0.067-0.083z"/><g id="g8" transform="translate(-3.288 -2.868)"><path id="path10" fill="none" d="m21.192 67.04s1.533-2.092 5.158-3.486c0 0 7.987-2.424 11.577-5.038-0.003 0.14-0.003 0.284-0.003 0.437 0.008 0.765 0.072 1.672 0.171 2.638 0.417 4.026 1.441 9.071 1.441 9.071 1.244-2.055 2.354-3.342 3.316-4.117 1.209-0.977 2.185-1.147 2.908-1.023 0.668 0.114 1.12 0.481 1.337 0.701-4.121-4.619-6.461-10.732-6.754-11.523 0.146-1.078-0.012-1.85-0.012-1.85l0.019 0.019c-1.245-1.757-2.264-3.749-2.929-5.809-1.182-1.406-1.788-4.282-1.788-4.282-1.397-3.918 0.114-4.756 0.457-4.891-1.415-8.013-0.255-10.764-0.255-10.764 2.091-6.482 9.307-9.62 9.307-9.62 0.947-0.333 1.358-0.208 1.358-0.208l1.126 0.684 0.966-0.684 1.045 0.418c0-1.882 2.161-2.162 2.161-2.162 0.966 2.544 3.381 3.521 3.381 3.521 6.273 1.254 8.784 4.705 8.784 4.705 4.071 4.581 2.361 11.778 1.571 14.33 0.515 0.44 1.188 1.623 0.101 4.671 0 0-0.669 3.174-1.973 4.484-0.766 2.121-1.921 3.64-3.341 5.462 0.055-0.057 0.085 0.475 0.085 0.475-0.023 0.432-0.014 0.83 0.019 1.209-0.155 0.475-1.924 5.64-6.877 11.684 0.157-0.184 0.701-0.743 1.602-0.836 0.759-0.078 1.769 0.176 3.008 1.266 0.901 0.793 1.922 2.027 3.057 3.896 0 0 0.856-4.224 1.321-8.026 0.156-1.28 0.269-2.515 0.286-3.522 0.002-0.075 0.004-0.15 0.004-0.225 3.668 2.564 11.399 4.912 11.399 4.912 3.626 1.395 5.158 3.486 5.158 3.486 2.763 4.089 4.268 6.771 5.079 8.88 5.53-7.235 8.824-16.266 8.824-26.054 0-23.71-19.29-43-43-43s-43 19.29-43 43c0 9.788 3.294 18.817 8.823 26.053 0.814-2.109 2.319-4.79 5.083-8.882z"/><path id="path12" d="m50.288 2.868c-25.916 0-47 21.084-47 47 0 25.915 21.084 46.998 47 46.998s47-21.083 47-46.998c0-25.916-21.084-47-47-47zm0 4c23.71 0 43 19.29 43 43 0 9.788-3.294 18.818-8.824 26.054-0.812-2.109-2.316-4.791-5.079-8.88 0 0-1.532-2.092-5.158-3.486 0 0-7.731-2.348-11.399-4.912 0 0.074-0.002 0.149-0.004 0.225-0.018 1.008-0.13 2.242-0.286 3.522-0.465 3.803-1.321 8.026-1.321 8.026-1.135-1.869-2.155-3.104-3.057-3.896-1.239-1.09-2.249-1.344-3.008-1.266-0.9 0.093-1.444 0.652-1.602 0.836 4.953-6.044 6.722-11.209 6.877-11.684-0.032-0.379-0.042-0.777-0.019-1.209 0 0-0.03-0.531-0.085-0.475 1.42-1.822 2.575-3.341 3.341-5.462 1.304-1.31 1.973-4.484 1.973-4.484 1.088-3.048 0.414-4.231-0.101-4.671 0.79-2.552 2.5-9.749-1.571-14.33 0 0-2.511-3.451-8.784-4.705 0 0-2.415-0.976-3.381-3.521 0 0-2.161 0.279-2.161 2.162l-1.045-0.418-0.966 0.684-1.126-0.684s-0.411-0.125-1.358 0.208c0 0-7.216 3.138-9.307 9.62 0 0-1.16 2.751 0.255 10.764-0.343 0.135-1.854 0.972-0.457 4.891 0 0 0.606 2.875 1.788 4.282 0.665 2.061 1.684 4.052 2.929 5.809l-0.019-0.019s0.157 0.771 0.012 1.85c0.293 0.791 2.633 6.904 6.754 11.523-0.217-0.22-0.669-0.587-1.337-0.701-0.724-0.124-1.699 0.047-2.908 1.023-0.963 0.775-2.072 2.063-3.316 4.117 0 0-1.024-5.045-1.441-9.071-0.099-0.966-0.163-1.873-0.171-2.638 0-0.152 0-0.297 0.003-0.437-3.59 2.614-11.577 5.038-11.577 5.038-3.625 1.395-5.158 3.486-5.158 3.486-2.765 4.093-4.27 6.773-5.081 8.881-5.529-7.235-8.823-16.265-8.823-26.053-0.002-23.709 19.288-42.999 42.998-42.999z"/></g></svg>
