<?xml version="1.0" encoding="UTF-8" standalone="no"?>
<svg id="svg2" xmlns:rdf="http://www.w3.org/1999/02/22-rdf-syntax-ns#" xmlns="http://www.w3.org/2000/svg" enable-background="new -6.14 0 100 100" xml:space="preserve" height="100" width="100" fill="#CDE1EA" version="1.1" y="0px" x="0px" xmlns:cc="http://creativecommons.org/ns#" xmlns:dc="http://purl.org/dc/elements/1.1/" viewBox="-6.14 0 94 93.998"><metadata id="metadata24"><rdf:RDF><cc:Work rdf:about=""><dc:format>image/svg+xml</dc:format><dc:type rdf:resource="http://purl.org/dc/dcmitype/StillImage"/></cc:Work></rdf:RDF></metadata><path id="path4" fill="none" d="m59.6 28.202c0.132-0.91 0.202-1.839 0.217-2.783l-1.193-0.22h-0.12l-6.516-0.829c3.576-2.064 1.685-6.576 0.802-8.09-0.26-0.447-0.442-0.709-0.442-0.709-0.051 0.037-0.101 0.072-0.151 0.109-10.177 7.328-18.51 10.111-18.51 10.111-4.598 1.815-12.299 3.091-12.299 3.091 1.265 13.743 9.323 24.34 19.078 24.34 6.399 0 12.067-4.561 15.567-11.576 1.923-3.856 3.192-8.453 3.567-13.444z"/><g id="g6" transform="translate(-3.394,-3.887)"><path id="path8" fill="none" d="m54.136 26.966c-0.208-0.358-0.354-0.568-0.354-0.568-0.041 0.03-0.081 0.058-0.122 0.087-8.159 5.876-14.841 8.107-14.841 8.107-3.687 1.456-9.861 2.479-9.861 2.479 1.014 11.018 7.477 19.515 15.297 19.515 5.13 0 9.675-3.656 12.481-9.282 1.542-3.092 2.561-6.778 2.861-10.779 0.105-0.729 0.162-1.474 0.174-2.231l-0.957-0.176h-0.097l-5.224-0.665c2.868-1.656 1.351-5.273 0.643-6.487z"/><path id="path10" fill="none" d="m22.943 59.217c-2.849 0.053-4.977 0.197-4.977 0.197 7.91-4.348 7.706-19.956 7.706-19.956-1.383-30.23 18.568-28.649 18.568-28.649l0.015 0.047 0.015-0.047s19.95-1.581 18.567 28.649c0 0-0.204 15.608 7.705 19.956 0 0-3.478-0.683-7.441-1.127 8.125 2.562 14.307 9.487 15.801 18.028 5.246-7.127 8.354-15.921 8.354-25.429 0-23.71-19.289-43-42.999-43-23.711 0-43.001 19.29-43.001 43 0 9.511 3.109 18.307 8.358 25.436 1.335-7.659 6.432-14.024 13.329-17.105z"/><path id="path12" fill="none" d="m30.816 59.416c1.21 2.236 4.211 4.049 8.095 4.93l5.344 8.684 5.344-8.685c4.717-1.069 8.139-3.509 8.621-6.417-3.034-0.075-5.619 0.23-6.308 1.363l2.053-4.273c-2.782 2.698-6.12 4.273-9.711 4.273-3.675 0-7.085-1.65-9.905-4.467l2.943 6.566c-0.687-1.127-3.343-1.701-6.476-1.974z"/><path id="path14" d="m44.255 3.887c-25.917 0-47.001 21.084-47.001 47 0 25.915 21.084 46.998 47.001 46.998 25.915 0 46.999-21.083 46.999-46.998 0-25.916-21.084-47-46.999-47zm0 4c23.71 0 42.999 19.29 42.999 43 0 9.508-3.107 18.302-8.354 25.429-1.494-8.541-7.676-15.467-15.801-18.028 3.964 0.444 7.441 1.127 7.441 1.127-7.909-4.348-7.705-19.956-7.705-19.956 1.383-30.23-18.567-28.649-18.567-28.649l-0.015 0.047-0.015-0.047s-19.95-1.581-18.567 28.649c0 0 0.204 15.608-7.706 19.956 0 0 2.128-0.145 4.977-0.197-6.897 3.081-11.993 9.446-13.33 17.105-5.249-7.129-8.358-15.925-8.358-25.436 0-23.71 19.29-43 43.001-43zm14.462 26.23h0.097l0.957 0.176c-0.012 0.757-0.068 1.501-0.174 2.231-0.301 4.001-1.319 7.688-2.861 10.779-2.807 5.626-7.352 9.282-12.481 9.282-7.82 0-14.283-8.497-15.297-19.515 0 0 6.175-1.023 9.861-2.479 0 0 6.682-2.231 14.841-8.107 0.041-0.029 0.081-0.057 0.122-0.087 0 0 0.146 0.21 0.354 0.568 0.708 1.214 2.225 4.832-0.643 6.487l5.224 0.665zm-24.369 20.707c2.82 2.816 6.23 4.467 9.905 4.467 3.591 0 6.929-1.575 9.711-4.273l-2.053 4.273c0.688-1.133 3.273-1.438 6.308-1.363-0.482 2.908-3.904 5.348-8.621 6.417l-5.344 8.685-5.344-8.684c-3.884-0.881-6.885-2.693-8.095-4.93 3.134 0.273 5.789 0.847 6.476 1.975l-2.943-6.567z"/></g></svg>
