<?xml version="1.0" encoding="UTF-8" standalone="no"?>
<svg id="svg2" xmlns:rdf="http://www.w3.org/1999/02/22-rdf-syntax-ns#" xmlns="http://www.w3.org/2000/svg" enable-background="new 0 0 100 100" xml:space="preserve" height="100" width="100" fill="#4CA4CB" version="1.1" y="0px" x="0px" xmlns:cc="http://creativecommons.org/ns#" xmlns:dc="http://purl.org/dc/elements/1.1/" viewBox="0 0 94 93.998"><metadata id="metadata22"><rdf:RDF><cc:Work rdf:about=""><dc:format>image/svg+xml</dc:format><dc:type rdf:resource="http://purl.org/dc/dcmitype/StillImage"/></cc:Work></rdf:RDF></metadata><g id="g4" transform="translate(-3,-3.001)"><path id="path6" fill="none" d="m35.185 41.643c0.277 0.279 0.568 0.416 0.844 0.366 0.133-0.019 0.253-0.086 0.363-0.188 1.344 4.182 3.919 8.346 7.168 10.832 1.871 1.434 3.966 2.311 6.178 2.311 2.262 0 4.399-0.918 6.303-2.408 3.189-2.494 5.717-6.607 7.044-10.734 0.108 0.102 0.23 0.169 0.364 0.188 0.236 0.044 0.484-0.053 0.729-0.256 0.606-0.515 1.177-1.718 1.437-3.18 0.341-1.905 0.033-3.576-0.682-3.91-0.053-0.024-0.105-0.042-0.162-0.052-0.223-0.039-0.455 0.043-0.68 0.221l-0.014 0.015c0-0.001-0.001-0.002-0.001-0.004-0.003 0.003-0.004 0.004-0.007 0.006-0.002-0.014-0.002-0.027-0.005-0.042-0.86-3.267-1.941-5.267-3.062-6.457-0.218-0.117-0.443-0.224-0.69-0.294-0.03 0.48 0.519 1.214 0.579 1.927-1.555-0.723-3.037-1.847-5.205-1.927-0.509-0.02-1.056-0.016-1.619-0.003-5.229 1.868-10.98-0.246-10.98-0.246-6.557-0.608-7.598 6.205-7.678 6.984-0.001 0.02-0.003 0.038-0.003 0.056h-0.002c-0.233-0.188-0.471-0.275-0.698-0.234-0.1 0.018-0.194 0.058-0.28 0.12-0.204 0.146-0.363 0.422-0.483 0.774-0.065 0.916-0.106 1.844-0.119 2.801 0.013 0.089 0.022 0.175 0.038 0.266 0.244 1.365 0.759 2.505 1.323 3.068z"/><path id="path8" fill="none" d="m15.3 73.313c3.971-13.654 11.303-14.124 12.882-14.493 3.108-0.727 6.871-0.416 8.878-1.043 0.237 1.969 5.963 8.446 9.717 12.508l1.601-6.289c-1.198-0.729-1.462-2.305-1.462-3.617h6.167c0 1.322-0.264 2.916-1.489 3.636l1.626 6.272c3.755-4.062 9.482-10.541 9.719-12.51 2.007 0.627 5.772 0.316 8.878 1.043 1.579 0.369 8.912 0.84 12.883 14.495 0.157 0.54 0.245 1.094 0.279 1.648 5.042-7.044 8.021-15.659 8.021-24.962 0-23.71-19.29-43-43-43s-43 19.29-43 43c0 9.304 2.98 17.919 8.022 24.963 0.034-0.556 0.122-1.11 0.278-1.651zm16.721-40.965c0.021-0.004 0.042-0.005 0.062-0.008 0.001-0.01 0.003-0.021 0.004-0.031h-0.032c0-1.415 0.189-2.781 0.511-4.097 0.211-2.525 0.763-4.852 1.729-6.709 2.871-5.525 9.173-8.848 17.538-8.287 9.596 0.643 15.68 6.677 15.707 17.054 0.001 0.726-0.025 1.432-0.065 2.131 1.104 0.417 1.589 2.914 1.077 5.777-0.472 2.638-1.629 4.705-2.729 5.028-1.434 3.869-3.692 7.633-6.485 10.42-1.662 1.662-3.518 2.977-5.5 3.764-1.314 0.52-2.688 0.811-4.1 0.811-1.411 0-2.784-0.29-4.1-0.811-1.915-0.762-3.709-2.016-5.33-3.598-2.864-2.797-5.177-6.618-6.641-10.552-1.15-0.162-2.396-2.299-2.889-5.062-0.537-3.006 0.02-5.616 1.243-5.83z"/><path id="path10" d="m33.666 43.24c1.464 3.934 3.777 7.755 6.641 10.552 1.62 1.582 3.415 2.836 5.33 3.598 1.316 0.521 2.689 0.811 4.1 0.811 1.412 0 2.785-0.291 4.1-0.811 1.982-0.787 3.838-2.102 5.5-3.764 2.793-2.787 5.052-6.551 6.485-10.42 1.101-0.323 2.258-2.391 2.729-5.028 0.512-2.863 0.027-5.36-1.077-5.777 0.04-0.699 0.066-1.405 0.065-2.131-0.027-10.377-6.111-16.411-15.707-17.054-8.365-0.561-14.667 2.762-17.538 8.287-0.965 1.857-1.517 4.184-1.729 6.709-0.322 1.315-0.511 2.682-0.511 4.097h0.032c0 0.011-0.003 0.021-0.004 0.031-0.02 0.003-0.04 0.004-0.062 0.008-1.223 0.214-1.78 2.824-1.244 5.831 0.495 2.762 1.74 4.899 2.89 5.061zm0.277-7.733c0.121-0.353 0.279-0.628 0.483-0.774 0.086-0.063 0.18-0.103 0.28-0.12 0.227-0.041 0.465 0.047 0.698 0.234h0.002c0-0.018 0.002-0.036 0.003-0.056 0.08-0.779 1.121-7.593 7.678-6.984 0 0 5.751 2.114 10.98 0.246 0.563-0.013 1.11-0.017 1.619 0.003 2.168 0.08 3.65 1.204 5.205 1.927-0.061-0.713-0.609-1.446-0.579-1.927 0.247 0.07 0.473 0.177 0.69 0.294 1.12 1.19 2.201 3.19 3.062 6.457 0.003 0.015 0.003 0.028 0.005 0.042 0.003-0.002 0.004-0.003 0.007-0.006 0 0.002 0.001 0.003 0.001 0.004l0.014-0.015c0.225-0.178 0.457-0.26 0.68-0.221 0.057 0.01 0.109 0.027 0.162 0.052 0.715 0.334 1.022 2.005 0.682 3.91-0.26 1.462-0.83 2.665-1.437 3.18-0.245 0.203-0.493 0.3-0.729 0.256-0.134-0.019-0.256-0.086-0.364-0.188-1.327 4.127-3.854 8.24-7.044 10.734-1.903 1.49-4.041 2.408-6.303 2.408-2.212 0-4.307-0.877-6.178-2.311-3.25-2.486-5.825-6.65-7.168-10.832-0.11 0.102-0.23 0.169-0.363 0.188-0.276 0.05-0.567-0.087-0.844-0.366-0.564-0.563-1.079-1.702-1.323-3.069-0.016-0.091-0.025-0.177-0.038-0.266 0.012-0.956 0.053-1.884 0.119-2.8z"/><path id="path12" d="m50 3.001c-25.916 0-47 21.084-47 47 0 25.915 21.084 46.998 47 46.998s47-21.083 47-46.998c0-25.916-21.084-47-47-47zm0 4c23.71 0 43 19.29 43 43 0 9.303-2.979 17.918-8.021 24.962-0.034-0.555-0.122-1.108-0.279-1.648-3.971-13.655-11.304-14.126-12.883-14.495-3.105-0.727-6.871-0.416-8.878-1.043-0.236 1.969-5.964 8.448-9.719 12.51l-1.626-6.272c1.226-0.72 1.489-2.313 1.489-3.636h-6.167c0 1.313 0.264 2.889 1.462 3.617l-1.601 6.289c-3.754-4.062-9.48-10.539-9.717-12.508-2.008 0.627-5.771 0.316-8.878 1.043-1.579 0.369-8.912 0.839-12.882 14.493-0.156 0.541-0.244 1.096-0.278 1.651-5.042-7.044-8.022-15.659-8.022-24.963 0-23.71 19.29-43 43-43z"/></g></svg>
